<?xml version="1.0" encoding="UTF-8"?>
<!DOCTYPE svg PUBLIC "-//W3C//DTD SVG 1.1//EN" "http://www.w3.org/Graphics/SVG/1.1/DTD/svg11.dtd">
<!-- Creator: CorelDRAW X8 -->
<svg xmlns="http://www.w3.org/2000/svg" xml:space="preserve" width="210mm" height="297mm" version="1.1" style="shape-rendering:geometricPrecision; text-rendering:geometricPrecision; image-rendering:optimizeQuality; fill-rule:evenodd; clip-rule:evenodd"
viewBox="0 0 21000 29700"
 xmlns:xlink="http://www.w3.org/1999/xlink">
 <defs>
  <style type="text/css">
   <![CDATA[
    .str0 {stroke:#2B2A29;stroke-width:20}
    .str1 {stroke:#2B2A29;stroke-width:17.62}
    .fil0 {fill:none;fill-rule:nonzero}
   ]]>
  </style>
 </defs>
 <g id="Слой_x0020_1">
  <metadata id="CorelCorpID_0Corel-Layer"/>
  <g id="_1207279072">
   <polygon class="fil0 str0" points="16193,2483 18630,2483 18630,6195 14587,6195 "/>
   <path class="fil0 str0" d="M19442 1634l-3684 12c-914,1566 -1640,3033 -2252,4675 97,995 193,1989 290,2983 91,928 276,1031 955,1022l27 0c-3,-39 -4,-79 -5,-118 -10,-1134 924,-2056 2087,-2059 1212,-4 2185,942 2127,2120l576 62 -121 -8697z"/>
  </g>
 </g>
 <g id="Layer_x0020_1">
  <metadata id="CorelCorpID_1Corel-Layer"/>
  <polygon class="fil0 str0" points="12196,2817 12946,2817 12946,3857 12196,3857 "/>
  <polygon class="fil0 str0" points="9726,1751 10230,1751 10230,2448 9726,2448 "/>
  <path class="fil0 str0" d="M1913 1202l1630 -219c129,215 350,491 631,819 295,345 659,745 1108,1083 803,603 1849,1068 2901,1426 760,259 1543,388 2260,510 680,116 1289,173 1782,234l-592 5163 -849 -8c46,-695 -461,-1895 -1712,-2152 -1274,-262 -2672,659 -2718,1855l-3381 -82c-342,-2759 -696,-5613 -1060,-8629z"/>
  <path class="fil0 str0" d="M1701 11419l3276 -294c331,902 1060,1897 2285,2597 1843,1052 4484,1618 5989,1644l-694 5978 -840 1c30,-1082 -878,-2069 -1905,-2192 -1195,-142 -2537,750 -2534,1887l-3381 -83 -1069 -8627 -1023 110 -104 -1021z"/>
  <path class="fil0 str1" d="M8899 20636l1393 -201 710 5939c28,241 229,403 472,407l574 10c242,4 431,-283 407,-525l-382 -3793c323,209 859,475 1160,631l327 3281c24,241 229,401 472,407l608 16c242,6 391,-289 373,-531l-187 -2444c278,89 807,235 1083,304l124 2257c14,242 230,406 472,407l575 2c242,1 413,-275 406,-517l-48 -1834c388,43 918,142 1248,158l-476 4687 -444 -7c-361,-2940 -4465,-2738 -4872,-286l-2897 -55c-206,-1966 -785,-5740 -1098,-8313z"/>
  <path class="fil0 str0" d="M8685 11172l1644 -180c21,-2 964,1637 2547,2515 1490,827 2501,1135 3778,1399 650,134 1369,235 2255,368 0,0 -67,810 -87,809 -1856,-144 -5148,-894 -6607,-1908 -870,-606 -1740,-1205 -2356,-2388 -2,-3 -990,118 -1102,115l-72 -730z"/>
 </g>
</svg>
