<?xml version="1.0" encoding="UTF-8"?>
<!DOCTYPE svg PUBLIC "-//W3C//DTD SVG 1.1//EN" "http://www.w3.org/Graphics/SVG/1.1/DTD/svg11.dtd">
<!-- Creator: CorelDRAW X8 -->
<svg xmlns="http://www.w3.org/2000/svg" xml:space="preserve" width="210mm" height="297mm" version="1.1" style="shape-rendering:geometricPrecision; text-rendering:geometricPrecision; image-rendering:optimizeQuality; fill-rule:evenodd; clip-rule:evenodd"
viewBox="0 0 21000 29700"
 xmlns:xlink="http://www.w3.org/1999/xlink">
 <defs>
  <style type="text/css">
   <![CDATA[
    .str0 {stroke:#2B2A29;stroke-width:20}
    .fil0 {fill:none;fill-rule:nonzero}
   ]]>
  </style>
 </defs>
 <g id="Layer_x0020_1">
  <metadata id="CorelCorpID_0Corel-Layer"/>
  <path class="fil0 str0" d="M17468 22828c-5,-331 162,-621 412,-774 -216,-100 -368,-329 -372,-598 -6,-365 266,-665 607,-670l0 -61c-111,62 -237,97 -370,99 -460,7 -839,-387 -846,-880 -2,-118 18,-231 56,-335 -508,-12 -920,-453 -928,-1001 -7,-473 289,-875 696,-994 -209,-159 -348,-420 -352,-716 -8,-494 360,-899 820,-906 16,0 32,0 48,1 -149,-111 -247,-294 -250,-502 -4,-255 136,-476 339,-574l0 -41c-6,1 -12,1 -18,1 -442,6 -806,-373 -813,-847 -1,-73 6,-144 21,-212 -334,-118 -578,-452 -584,-849 -6,-401 232,-745 566,-870 -31,-74 -49,-157 -50,-244 -6,-343 250,-625 569,-629 25,-1 49,1 72,3 -35,-78 -55,-166 -57,-258 -3,-205 87,-388 229,-503l-6 -353c-115,-164 -185,-368 -189,-589 -3,-206 52,-397 149,-558 -359,-136 -618,-499 -625,-930 -2,-143 24,-279 73,-403 -148,-174 -240,-404 -243,-658 -9,-553 403,-1007 919,-1015 19,0 38,0 56,1 34,-303 273,-540 566,-544 76,-1 149,13 216,41 -76,-103 -122,-233 -125,-375 -3,-256 138,-478 344,-576l-2 -104c-417,-108 -730,-508 -738,-989 -2,-148 25,-289 75,-417 -403,-52 -718,-417 -725,-864 -2,-143 28,-278 82,-397l2518 -38 2 135c-1158,2603 -1878,6959 -1806,11883 58,3869 594,7372 1420,9942l-767 11c-52,12 -105,19 -160,19 -451,7 -822,-379 -829,-862z"/>
 </g>
 <g id="Layer_x0020_1_0">
  <metadata id="CorelCorpID_1Corel-Layer"/>
  <path class="fil0 str0" d="M14537 3799l1640 14c425,20 546,79 369,451l-1187 2339c-1104,1979 -2003,2634 -3422,3090 -3204,912 -7643,1556 -10221,-1034 -373,-325 -608,-798 -608,-1324 0,-755 448,-1365 1128,-1621 1136,-429 1452,-1202 2469,-1856 422,-271 1037,-300 1476,-35l0 0 0 0c69,42 134,90 192,145 339,270 526,617 773,911 226,268 507,488 899,667 349,160 667,223 1122,244 1632,75 3422,-148 3834,-549l868 -1113c278,-330 240,-312 668,-329z"/>
  <path class="fil0 str0" d="M6029 23648c529,-103 1042,242 1145,771 277,1419 -1639,1281 -1639,1782 0,500 1917,355 1639,1778 -103,529 -616,874 -1145,771 -990,-193 -1006,-1603 -1422,-1603 -438,0 -425,1408 -1420,1602 -530,104 -1042,-242 -1145,-771 -286,-1462 1656,-1255 1656,-1777 0,-504 -1935,-352 -1656,-1781 103,-529 615,-875 1145,-771 983,191 974,1632 1420,1632 370,0 560,-1465 1422,-1633z"/>
  <path class="fil0 str0" d="M14831 21080c1546,2402 3092,4804 4638,7205l-4638 -207c-300,-421 -490,-1081 -693,-1548 -973,-2243 -679,-4563 366,-5498 116,-105 221,-187 289,-37 13,29 25,57 38,85z"/>
  <path class="fil0 str0" d="M11548 11703c-1818,19 -3099,-226 -4902,-648 497,1152 1377,2749 2533,3930 937,956 2079,1617 3160,1732 281,30 1786,100 1691,-404 -5,-25 -20,-63 -35,-91 -642,-1231 -2125,-3862 -2447,-4519z"/>
  <path class="fil0 str0" d="M12416 10389l1792 -133c243,333 1397,1998 1427,2042 59,89 -426,194 -841,246 -265,33 -515,7 -608,-7 -203,-32 -338,-86 -485,-265 -432,-526 -850,-1158 -1285,-1883z"/>
  <path class="fil0 str0" d="M2740 20185c5664,399 7524,-87 12238,-1852 -89,203 -242,592 -427,967 -230,468 -495,918 -573,1017 -1547,1964 -9306,2676 -11379,1533l141 -1665z"/>
  <path class="fil0 str0" d="M2265 13510c-165,-520 -76,-982 176,-1392 84,-138 207,-262 320,-391 384,-433 337,-437 457,-584 1286,375 2354,1541 2340,3931 -752,-30 -1672,-122 -2380,-492 -429,-224 -744,-542 -913,-1072z"/>
  <path class="fil0 str0" d="M1657 16861l0 0 0 0c1,3 2,7 3,9 1,3 3,5 7,6l1244 2042 1577 -112c-208,-357 -1790,-3170 -1893,-3239 -247,-164 -675,503 -746,632 -109,199 -215,561 -192,662z"/>
 </g>
</svg>
